M48
;GenerationSoftware,Autodesk,EAGLE,8.7.0*%
;CreationDate,2018-03-11T21:08:03Z*%
FMAT,2
ICI,OFF
METRIC,TZ,000.000
T19C0.508
T18C0.600
T17C0.610
T16C0.800
T15C0.813
T14C0.900
T13C0.914
T12C1.000
T11C1.016
T10C1.100
T9C1.200
T8C1.300
T7C1.400
T6C1.499
T5C1.500
T4C1.600
T3C2.200
T2C3.800
%
G90
M71
T2
X94540Y16190
X5460Y16190
X94540Y62540
X5460Y62540
T3
X85270Y69850
X95070Y69850
X64950Y69850
X74750Y69850
T4
X8175Y39370
X3175Y34370
X3175Y44370
T5
X2540Y30135
X2540Y21935
X20030Y77470
X28230Y77470
T6
X75235Y6960
X69545Y6960
X62535Y6960
X94945Y6960
X87935Y6960
X82245Y6960
T7
X46990Y77390
X41910Y77390
X49530Y64990
X39370Y64990
X85310Y36195
X97710Y33655
X97710Y28575
X97710Y26035
X97710Y36195
X51970Y67430
X36830Y67430
X44450Y67330
X49530Y77390
X85310Y26035
X87750Y23595
X87750Y38735
X87650Y31115
X39370Y77390
T8
X8175Y34370
X3175Y39370
X8175Y41870
X8175Y36870
X8175Y44370
T9
X8255Y74120
X8255Y68120
X3555Y71120
T10
X21235Y1800
X30535Y1800
X29635Y6800
X24435Y9900
X72390Y73150
X67310Y73150
X69850Y73150
X92710Y73150
X87630Y73150
X90170Y73150
X26035Y1800
X26035Y6800
T11
X89179Y4470
X15240Y4064
X81001Y4470
X76479Y4470
X68301Y4470
X63779Y4470
X93701Y4470
X96500Y55885
X96500Y53345
X96500Y50805
X96500Y48265
X96500Y45725
X96500Y43185
X12700Y4064
X92500Y45725
X92500Y48265
X92500Y43185
X66040Y38100
X92500Y50805
X92500Y53345
X63500Y38100
X60960Y38100
X92500Y55885
X58420Y38100
X55880Y38100
X69215Y38100
X53340Y38100
T12
X61595Y31115
X58695Y12065
X59330Y71120
X13695Y12065
X77470Y65680
X77470Y20680
X14330Y71120
X61595Y28575
X64135Y31115
X66675Y31115
X69215Y31115
X64135Y26035
X66675Y26035
X69215Y26035
X71755Y26035
X71755Y28575
X69215Y28575
X66675Y28575
X64135Y28575
X71755Y31115
X61595Y26035
X74295Y31115
X74295Y28575
X74295Y26035
T13
X5080Y2540
X5080Y5080
X5080Y7620
T14
X36830Y46990
X41275Y46990
T15
X40640Y31750
X81280Y28257
X81280Y30798
X81280Y38798
X40640Y19050
X40640Y21590
X40640Y34290
X40640Y36830
X40640Y24130
X40640Y26670
X74930Y45720
X40640Y29210
X33020Y36830
X33020Y34290
X33020Y31750
X33020Y29210
X33020Y26670
X33020Y24130
X33020Y21590
X33020Y19050
X64770Y53340
X82550Y53340
X74930Y53340
X23368Y61214
X16256Y63754
X16256Y61214
X77470Y53340
X85090Y53340
X87630Y53340
X67310Y53340
X81280Y20257
X64770Y45720
X67310Y45720
X69850Y45720
X72390Y45720
X36640Y61468
X80010Y53340
X72390Y53340
X69850Y53340
X23368Y63754
X10160Y28765
X19558Y16510
X19685Y45720
X19685Y43180
X32830Y55880
X40830Y55880
X28575Y47053
X28575Y39053
X14605Y31560
X14605Y39560
X10160Y20765
X16002Y16510
X17145Y75390
X17145Y67770
X23495Y33845
X23495Y25845
X39815Y13335
X47815Y13335
X24765Y39180
X24765Y47180
X73787Y39370
X77343Y39370
X34544Y13970
X26924Y31750
X46736Y30480
X44704Y30480
X46736Y36830
X44704Y36830
X33020Y40894
X33020Y42926
X39370Y40894
X39370Y42926
X36576Y13970
X28956Y31750
X26924Y25400
X28956Y25400
X46736Y24130
X44704Y24130
X26924Y19050
X28956Y19050
X44704Y17780
X46736Y17780
X16002Y25400
X19558Y25400
X13970Y49530
X85090Y16954
X68580Y17970
X68580Y9970
X81280Y17970
X81280Y9970
X88710Y10795
X96710Y10795
X69660Y61595
X77660Y61595
X80899Y63627
X83439Y63627
X85090Y8954
X16510Y49530
X29210Y49530
X29210Y57150
X19050Y49530
X21590Y49530
X26670Y49530
X24130Y49530
X26670Y57150
X24130Y57150
X21590Y57150
X19050Y57150
X52070Y29400
X44640Y61468
X26670Y72009
X26670Y69850
X26670Y67691
X32385Y64580
X32385Y72580
X55880Y9970
X55880Y17970
X55880Y21400
X55880Y29400
X52070Y21400
X80010Y45720
X55880Y62230
X48260Y62230
X48070Y57785
X56070Y57785
X86360Y57912
X88900Y57912
X61468Y9970
X61468Y17970
X73660Y9970
X73660Y17970
X64770Y15240
X57150Y45720
X59690Y45720
X21590Y69850
X21590Y72390
X28956Y64770
X28956Y62230
X77470Y45720
X82550Y45720
X64770Y12700
X13970Y57150
X85090Y45720
X87630Y45720
X16510Y57150
X77470Y12700
X77470Y15240
X84074Y19812
X86614Y19812
X73851Y58420
X81851Y58420
X54610Y53340
X17780Y39560
X17780Y31560
X2858Y48260
X10858Y48260
X10858Y52070
X2858Y52070
X10858Y55880
X2858Y55880
X14605Y45720
X14605Y43180
X52070Y53340
X28130Y36195
X20130Y36195
X59690Y53340
X57150Y53340
X52070Y45720
X54610Y45720
T16
X36830Y4699
X39370Y4699
X45085Y4699
X66040Y57150
X2540Y26035
X47625Y4699
X53340Y4699
X55880Y4699
X2540Y28035
X2540Y24035
X8128Y26162
X66040Y64770
X63500Y64770
X22130Y77470
X26130Y77470
X24130Y77470
X63500Y57150
X60960Y64770
X60960Y57150
T17
X58420Y59690
X71120Y49530
X71120Y34544
X73660Y49530
X72390Y33274
X60960Y20320
X83312Y33528
X81280Y25400
X38100Y50800
X34925Y71120
X74168Y33020
X21844Y39370
X67310Y60325
T18
X12670Y7080
X15270Y7080
T19
X33020Y52070
M30