G04 EAGLE Gerber X2 export*
%TF.Part,Single*%
%TF.FileFunction,Profile,NP*%
%TF.FilePolarity,Positive*%
%TF.GenerationSoftware,Autodesk,EAGLE,8.7.0*%
%TF.CreationDate,2018-03-11T21:08:06Z*%
G75*
%MOMM*%
%FSLAX34Y34*%
%LPD*%
%AMOC8*
5,1,8,0,0,1.08239X$1,22.5*%
G01*
%ADD10C,0.254000*%


D10*
X0Y0D02*
X1000000Y0D01*
X1000000Y800000D01*
X0Y800000D01*
X0Y0D01*
X260659Y23500D02*
X261273Y23431D01*
X261875Y23293D01*
X262458Y23089D01*
X263015Y22821D01*
X263538Y22493D01*
X264021Y22108D01*
X264458Y21671D01*
X264843Y21188D01*
X265171Y20665D01*
X265439Y20108D01*
X265643Y19525D01*
X265781Y18923D01*
X265850Y18309D01*
X265850Y17691D01*
X265781Y17077D01*
X265643Y16475D01*
X265439Y15892D01*
X265171Y15335D01*
X264843Y14812D01*
X264458Y14329D01*
X264021Y13893D01*
X263538Y13507D01*
X263015Y13179D01*
X262458Y12911D01*
X261875Y12707D01*
X261273Y12569D01*
X260659Y12500D01*
X260041Y12500D01*
X259427Y12569D01*
X258825Y12707D01*
X258242Y12911D01*
X257685Y13179D01*
X257162Y13507D01*
X256679Y13893D01*
X256243Y14329D01*
X255857Y14812D01*
X255529Y15335D01*
X255261Y15892D01*
X255057Y16475D01*
X254919Y17077D01*
X254850Y17691D01*
X254850Y18309D01*
X254919Y18923D01*
X255057Y19525D01*
X255261Y20108D01*
X255529Y20665D01*
X255857Y21188D01*
X256243Y21671D01*
X256679Y22108D01*
X257162Y22493D01*
X257685Y22821D01*
X258242Y23089D01*
X258825Y23293D01*
X259427Y23431D01*
X260041Y23500D01*
X260659Y23500D01*
X260659Y73500D02*
X261273Y73431D01*
X261875Y73293D01*
X262458Y73089D01*
X263015Y72821D01*
X263538Y72493D01*
X264021Y72108D01*
X264458Y71671D01*
X264843Y71188D01*
X265171Y70665D01*
X265439Y70108D01*
X265643Y69525D01*
X265781Y68923D01*
X265850Y68309D01*
X265850Y67691D01*
X265781Y67077D01*
X265643Y66475D01*
X265439Y65892D01*
X265171Y65335D01*
X264843Y64812D01*
X264458Y64329D01*
X264021Y63893D01*
X263538Y63507D01*
X263015Y63179D01*
X262458Y62911D01*
X261875Y62707D01*
X261273Y62569D01*
X260659Y62500D01*
X260041Y62500D01*
X259427Y62569D01*
X258825Y62707D01*
X258242Y62911D01*
X257685Y63179D01*
X257162Y63507D01*
X256679Y63893D01*
X256243Y64329D01*
X255857Y64812D01*
X255529Y65335D01*
X255261Y65892D01*
X255057Y66475D01*
X254919Y67077D01*
X254850Y67691D01*
X254850Y68309D01*
X254919Y68923D01*
X255057Y69525D01*
X255261Y70108D01*
X255529Y70665D01*
X255857Y71188D01*
X256243Y71671D01*
X256679Y72108D01*
X257162Y72493D01*
X257685Y72821D01*
X258242Y73089D01*
X258825Y73293D01*
X259427Y73431D01*
X260041Y73500D01*
X260659Y73500D01*
X39750Y443307D02*
X39673Y442525D01*
X39520Y441754D01*
X39291Y441002D01*
X38991Y440275D01*
X38620Y439582D01*
X38183Y438929D01*
X37685Y438321D01*
X37129Y437765D01*
X36521Y437267D01*
X35868Y436830D01*
X35175Y436459D01*
X34448Y436159D01*
X33696Y435930D01*
X32925Y435777D01*
X32143Y435700D01*
X31357Y435700D01*
X30575Y435777D01*
X29804Y435930D01*
X29052Y436159D01*
X28325Y436459D01*
X27632Y436830D01*
X26979Y437267D01*
X26371Y437765D01*
X25815Y438321D01*
X25317Y438929D01*
X24880Y439582D01*
X24509Y440275D01*
X24209Y441002D01*
X23980Y441754D01*
X23827Y442525D01*
X23750Y443307D01*
X23750Y444093D01*
X23827Y444875D01*
X23980Y445646D01*
X24209Y446398D01*
X24509Y447125D01*
X24880Y447818D01*
X25317Y448471D01*
X25815Y449079D01*
X26371Y449635D01*
X26979Y450133D01*
X27632Y450570D01*
X28325Y450941D01*
X29052Y451241D01*
X29804Y451470D01*
X30575Y451623D01*
X31357Y451700D01*
X32143Y451700D01*
X32925Y451623D01*
X33696Y451470D01*
X34448Y451241D01*
X35175Y450941D01*
X35868Y450570D01*
X36521Y450133D01*
X37129Y449635D01*
X37685Y449079D01*
X38183Y448471D01*
X38620Y447818D01*
X38991Y447125D01*
X39291Y446398D01*
X39520Y445646D01*
X39673Y444875D01*
X39750Y444093D01*
X39750Y443307D01*
X39750Y343307D02*
X39673Y342525D01*
X39520Y341754D01*
X39291Y341002D01*
X38991Y340275D01*
X38620Y339582D01*
X38183Y338929D01*
X37685Y338321D01*
X37129Y337765D01*
X36521Y337267D01*
X35868Y336830D01*
X35175Y336459D01*
X34448Y336159D01*
X33696Y335930D01*
X32925Y335777D01*
X32143Y335700D01*
X31357Y335700D01*
X30575Y335777D01*
X29804Y335930D01*
X29052Y336159D01*
X28325Y336459D01*
X27632Y336830D01*
X26979Y337267D01*
X26371Y337765D01*
X25815Y338321D01*
X25317Y338929D01*
X24880Y339582D01*
X24509Y340275D01*
X24209Y341002D01*
X23980Y341754D01*
X23827Y342525D01*
X23750Y343307D01*
X23750Y344093D01*
X23827Y344875D01*
X23980Y345646D01*
X24209Y346398D01*
X24509Y347125D01*
X24880Y347818D01*
X25317Y348471D01*
X25815Y349079D01*
X26371Y349635D01*
X26979Y350133D01*
X27632Y350570D01*
X28325Y350941D01*
X29052Y351241D01*
X29804Y351470D01*
X30575Y351623D01*
X31357Y351700D01*
X32143Y351700D01*
X32925Y351623D01*
X33696Y351470D01*
X34448Y351241D01*
X35175Y350941D01*
X35868Y350570D01*
X36521Y350133D01*
X37129Y349635D01*
X37685Y349079D01*
X38183Y348471D01*
X38620Y347818D01*
X38991Y347125D01*
X39291Y346398D01*
X39520Y345646D01*
X39673Y344875D01*
X39750Y344093D01*
X39750Y343307D01*
X89750Y393307D02*
X89673Y392525D01*
X89520Y391754D01*
X89291Y391002D01*
X88991Y390275D01*
X88620Y389582D01*
X88183Y388929D01*
X87685Y388321D01*
X87129Y387765D01*
X86521Y387267D01*
X85868Y386830D01*
X85175Y386459D01*
X84448Y386159D01*
X83696Y385930D01*
X82925Y385777D01*
X82143Y385700D01*
X81357Y385700D01*
X80575Y385777D01*
X79804Y385930D01*
X79052Y386159D01*
X78325Y386459D01*
X77632Y386830D01*
X76979Y387267D01*
X76371Y387765D01*
X75815Y388321D01*
X75317Y388929D01*
X74880Y389582D01*
X74509Y390275D01*
X74209Y391002D01*
X73980Y391754D01*
X73827Y392525D01*
X73750Y393307D01*
X73750Y394093D01*
X73827Y394875D01*
X73980Y395646D01*
X74209Y396398D01*
X74509Y397125D01*
X74880Y397818D01*
X75317Y398471D01*
X75815Y399079D01*
X76371Y399635D01*
X76979Y400133D01*
X77632Y400570D01*
X78325Y400941D01*
X79052Y401241D01*
X79804Y401470D01*
X80575Y401623D01*
X81357Y401700D01*
X82143Y401700D01*
X82925Y401623D01*
X83696Y401470D01*
X84448Y401241D01*
X85175Y400941D01*
X85868Y400570D01*
X86521Y400133D01*
X87129Y399635D01*
X87685Y399079D01*
X88183Y398471D01*
X88620Y397818D01*
X88991Y397125D01*
X89291Y396398D01*
X89520Y395646D01*
X89673Y394875D01*
X89750Y394093D01*
X89750Y393307D01*
M02*
